<svg xmlns="http://www.w3.org/2000/svg" id="SvgjsSvg12091" width="4096" height="1191.9463715663483" version="1.1" xmlns:xlink="http://www.w3.org/1999/xlink" xmlns:svgjs="http://svgjs.com/svgjs"><defs id="SvgjsDefs12092"></defs><g id="SvgjsG12093" transform="translate(328, 327.99999999999994) scale(34.4)" opacity="1"><defs id="SvgjsDefs4453"></defs><g id="SvgjsG4454" transform="scale(0.21645021645021645)" opacity="1"><g id="SvgjsG4455" class="TbXBuD2qx" transform="translate(-4.297089246633714, -3.99878024067906) scale(0.7997560481358119)" light-content="false" non-strokable="false" fill="#1971c2"><path d="M24.777 38.979h-6.758A2.021 2.021 0 0 0 15.998 41v41.355c0 1.116.905 2.021 2.021 2.021h40.753a2.021 2.021 0 0 0 2.021-2.021V41a2.021 2.021 0 0 0-2.021-2.021H43.326V28.354H62.77a8.648 8.648 0 0 1 8.648 8.648v49.351a8.648 8.648 0 0 1-8.648 8.648H14.021a8.648 8.648 0 0 1-8.648-8.648V37.002a8.648 8.648 0 0 1 8.648-8.648h10.756v10.625z"></path><path d="M75.223 61.021h6.758A2.021 2.021 0 0 0 84.002 59V17.646a2.021 2.021 0 0 0-2.021-2.021H41.228a2.021 2.021 0 0 0-2.021 2.021V59c0 1.116.905 2.021 2.021 2.021h15.446v10.625H37.23a8.648 8.648 0 0 1-8.648-8.648v-49.35A8.648 8.648 0 0 1 37.23 5h48.749a8.648 8.648 0 0 1 8.648 8.648v49.351a8.648 8.648 0 0 1-8.648 8.648H75.223V61.021zM24.777 28.354v10.625h-6.758"></path></g><g id="SvgjsG4456" class="text" transform="translate(282.55677377504105, 57.474238221114334) scale(1)" light-content="false" fill="#1971c2"><path d="M-174.73 -38.96L-174.73 -5.03L-179.76 -5.03L-179.76 0L-160.41 0L-160.41 -5.03L-165.43 -5.03L-165.43 -38.96L-160.41 -38.96L-160.41 -43.98L-179.76 -43.98L-179.76 -38.96Z M-141.93 -22.93L-123.9 0.31L-117.18 0.31L-117.18 -43.98L-125.98 -43.98L-125.98 -20.92L-124.97 -14.45L-125.35 -14.45L-128.93 -20.86L-147.09 -44.3L-153.81 -44.3L-153.81 0L-145.01 0L-145.01 -22.87L-146.02 -29.53L-145.7 -29.53Z M-75.15 -35.81L-75.15 -43.98L-112.34 -43.98L-112.34 -35.81L-98.39 -35.81L-98.39 0L-89.09 0L-89.09 -35.81Z M-70.31 -43.98L-70.31 0L-41.66 0L-41.66 -8.17L-61.01 -8.17L-61.01 -18.1L-43.73 -18.1L-43.73 -26.26L-61.01 -26.26L-61.01 -35.81L-41.97 -35.81L-41.97 -43.98Z M-34.75 -43.54L-34.75 0L-25.45 0L-25.45 -17.78L-20.55 -17.03L-9.61 0L1.19 0L-9.8 -16.65L-13.13 -18.6C-9.99 -19.44 -7.53 -21.02 -5.75 -23.34C-3.97 -25.67 -3.08 -28.63 -3.08 -32.23C-3.08 -34.66 -3.6 -36.68 -4.65 -38.3C-5.7 -39.91 -7.07 -41.18 -8.76 -42.1C-10.46 -43.02 -12.39 -43.67 -14.55 -44.04C-16.7 -44.42 -18.89 -44.61 -21.11 -44.61C-22.07 -44.61 -23.13 -44.59 -24.28 -44.55C-25.44 -44.51 -26.62 -44.44 -27.83 -44.36C-29.05 -44.27 -30.25 -44.16 -31.45 -44.01C-32.64 -43.87 -33.74 -43.71 -34.75 -43.54ZM-20.48 -36.44C-18.05 -36.44 -16.19 -35.96 -14.89 -35C-13.59 -34.03 -12.94 -32.63 -12.94 -30.79C-12.94 -28.32 -13.71 -26.58 -15.24 -25.57C-16.77 -24.57 -18.85 -24.06 -21.49 -24.06L-25.45 -24.06L-25.45 -36.19C-24.9 -36.32 -24.18 -36.39 -23.28 -36.41C-22.38 -36.43 -21.45 -36.44 -20.48 -36.44Z M33.11 -18.16L33.11 0L42.41 0L42.41 -43.98L33.11 -43.98L33.11 -26.33L15.52 -26.33L15.52 -43.98L6.22 -43.98L6.22 0L15.52 0L15.52 -18.16Z M49.01 -21.99C49.01 -18.6 49.43 -15.5 50.26 -12.69C51.1 -9.89 52.37 -7.48 54.07 -5.47C55.76 -3.46 57.88 -1.9 60.41 -0.79C62.95 0.32 65.91 0.88 69.3 0.88C72.44 0.88 75.27 0.37 77.78 -0.66C80.3 -1.69 82.43 -3.17 84.19 -5.12C85.95 -7.07 87.3 -9.47 88.25 -12.31C89.19 -15.16 89.66 -18.39 89.66 -21.99C89.66 -25.38 89.23 -28.48 88.37 -31.29C87.51 -34.1 86.24 -36.5 84.54 -38.52C82.84 -40.53 80.73 -42.09 78.19 -43.2C75.66 -44.31 72.7 -44.86 69.3 -44.86C66.12 -44.86 63.27 -44.35 60.76 -43.32C58.24 -42.3 56.12 -40.81 54.38 -38.86C52.64 -36.91 51.31 -34.51 50.39 -31.67C49.47 -28.82 49.01 -25.59 49.01 -21.99ZM58.87 -21.99C58.87 -27.1 59.79 -30.83 61.64 -33.17C63.48 -35.52 66.04 -36.69 69.3 -36.69C71.19 -36.69 72.79 -36.33 74.11 -35.59C75.43 -34.86 76.52 -33.83 77.38 -32.51C78.23 -31.2 78.85 -29.64 79.23 -27.83C79.61 -26.03 79.79 -24.09 79.79 -21.99C79.79 -16.71 78.87 -12.94 77.03 -10.68C75.19 -8.42 72.61 -7.29 69.3 -7.29C67.5 -7.29 65.94 -7.64 64.62 -8.36C63.3 -9.07 62.22 -10.07 61.39 -11.37C60.55 -12.67 59.92 -14.22 59.5 -16.02C59.08 -17.82 58.87 -19.81 58.87 -21.99Z M133.33 -22.05L133.33 0L142.63 0L142.63 -43.98L134.27 -43.98L122.14 -23.81L120.07 -18.85L119.76 -18.85L117.37 -23.69L104.68 -43.98L96.26 -43.98L96.26 0L105.05 0L105.05 -22.12L103.73 -31.1L104.11 -31.1L107.06 -24.32L117.87 -7.85L120.76 -7.85L130.94 -24.25L133.96 -31.16L134.33 -31.16Z M150.79 -43.98L150.79 0L179.44 0L179.44 -8.17L160.09 -8.17L160.09 -18.1L177.37 -18.1L177.37 -26.26L160.09 -26.26L160.09 -35.81L179.13 -35.81L179.13 -43.98Z"></path></g></g></g></svg>